<?xml version="1.0" encoding="UTF-8" standalone="no"?>
<!-- Created with Inkscape (http://www.inkscape.org/) -->

<svg
   width="139.7392mm"
   height="88.848801mm"
   viewBox="0 0 139.73919 88.848799"
   version="1.1"
   id="svg1"
   sodipodi:docname="brand-logo-vertical.svg"
   inkscape:version="1.3.2 (091e20ef0f, 2023-11-25, custom)"
   inkscape:export-filename="logo-simple.png"
   inkscape:export-xdpi="96"
   inkscape:export-ydpi="96"
   xmlns:inkscape="http://www.inkscape.org/namespaces/inkscape"
   xmlns:sodipodi="http://sodipodi.sourceforge.net/DTD/sodipodi-0.dtd"
   xmlns="http://www.w3.org/2000/svg"
   xmlns:svg="http://www.w3.org/2000/svg">
  <sodipodi:namedview
     id="namedview1"
     pagecolor="#ffffff"
     bordercolor="#000000"
     borderopacity="0.25"
     inkscape:showpageshadow="2"
     inkscape:pageopacity="0.0"
     inkscape:pagecheckerboard="0"
     inkscape:deskcolor="#d1d1d1"
     inkscape:document-units="mm"
     inkscape:zoom="0.62283139"
     inkscape:cx="201.49916"
     inkscape:cy="223.17437"
     inkscape:window-width="1920"
     inkscape:window-height="1056"
     inkscape:window-x="0"
     inkscape:window-y="0"
     inkscape:window-maximized="1"
     inkscape:current-layer="layer1"
     showgrid="true">
    <inkscape:grid
       id="grid2"
       units="mm"
       originx="40.187796"
       originy="21.357194"
       spacingx="0.99999998"
       spacingy="1"
       empcolor="#0099e5"
       empopacity="0.30196078"
       color="#0099e5"
       opacity="0.14901961"
       empspacing="5"
       dotted="false"
       gridanglex="30"
       gridanglez="30"
       visible="true" />
  </sodipodi:namedview>
  <defs
     id="defs1">
    <inkscape:path-effect
       effect="fillet_chamfer"
       id="path-effect2"
       is_visible="true"
       lpeversion="1"
       nodesatellites_param="F,0,0,1,0,1.9329594,0,1 @ F,0,0,1,0,1.9103716,0,1 @ F,0,0,1,0,1.9351805,0,1 @ F,0,0,1,0,1.9456395,0,1"
       radius="0"
       unit="px"
       method="auto"
       mode="F"
       chamfer_steps="1"
       flexible="false"
       use_knot_distance="true"
       apply_no_radius="true"
       apply_with_radius="true"
       only_selected="false"
       hide_knots="false" />
    <inkscape:path-effect
       effect="fillet_chamfer"
       id="path-effect1"
       is_visible="true"
       lpeversion="1"
       nodesatellites_param="F,0,0,1,0,1.8675945,0,1 @ F,0,0,1,0,1.9196516,0,1 @ F,0,0,1,0,0,0,1 @ F,0,0,1,0,0,0,1"
       radius="0"
       unit="px"
       method="auto"
       mode="F"
       chamfer_steps="1"
       flexible="false"
       use_knot_distance="true"
       apply_no_radius="true"
       apply_with_radius="true"
       only_selected="false"
       hide_knots="false" />
    <inkscape:perspective
       sodipodi:type="inkscape:persp3d"
       inkscape:vp_x="6.0698811 : 86.818296 : 1"
       inkscape:vp_y="0 : 999.99998 : 0"
       inkscape:vp_z="62.128554 : 63.394346 : 1"
       inkscape:persp3d-origin="31.064277 : 54.909529 : 1"
       id="perspective6" />
    <clipPath
       clipPathUnits="userSpaceOnUse"
       id="clipPath4">
      <g
         id="g5">
        <g
           inkscape:label="Clip"
           id="use4"
           clip-path="url(#clipPath4)">
          <path
             style="fill:#000000;stroke-width:0.264583"
             d="m 61.394593,159.37841 c -0.600432,-0.0761 -1.379081,-0.29132 -1.921269,-0.5311 -0.366365,-0.16202 -0.523064,-0.29594 -0.737731,-0.63046 -0.465043,-0.72471 -0.579628,-1.14822 -0.507343,-1.87514 0.141106,-1.41902 0.992146,-2.09426 2.207834,-2.6156 0.392917,-0.1685 11.249182,-0.47473 28.390509,-0.34773 15.604357,-0.0234 28.525327,-0.01 28.828997,0.0306 1.13967,0.15093 2.02128,0.74833 2.44241,1.65503 0.18725,0.40315 0.22023,0.5928 0.22224,1.27775 0.002,0.70641 -0.0256,0.86134 -0.22761,1.27258 -0.34887,0.71034 -0.90013,1.24887 -1.64365,1.38653 l -1.89604,0.27077 -2.28202,0.0967 c 2.27479,-0.0964 -52.492992,0.0586 -52.876327,0.0101 z m 0.149009,-7.8428 c -0.0226,-0.0589 -0.0111,-0.19225 0.02556,-0.29633 0.03666,-0.10408 0.08858,-6.05494 0.115378,-13.22413 l 0.04872,-13.0349 0.338667,-0.0743 c 0.246224,-0.054 54.647033,-0.0372 54.800503,0.017 0.0116,0.004 0.0212,6.0081 0.0212,13.34221 v 13.33475 l -27.654443,0.0214 c -22.235341,0.0172 -27.662501,5.3e-4 -27.695545,-0.0857 z m 38.750618,-17.06955 c -0.0223,-0.0602 -8.578306,-0.0547 -8.510088,-0.1576 l 3.378014,-5.09458 c 0,0 -8.530731,-0.0125 -8.617537,-0.008 l -7.573243,11.25497 5.95246,-0.0464 c 0.129749,0.21361 -4.453708,9.7562 -4.453708,9.7562 0.06265,0.0195 19.824102,-15.70477 19.824102,-15.70477 z m -12.298691,3.92891 -5.211553,0.047 4.87997,-7.48084 4.090397,0.0378 c 0.03421,3.2e-4 -3.517617,5.18963 -3.577092,5.20598 0,0 7.132839,-0.0372 7.136947,-0.0368 0,0 -10.028066,7.90248 -10.05984,7.91394 z m -17.584308,-6.16702 3.379247,0.008 -0.01422,-1.89325 -3.33903,0.0591 -0.09914,-3.13479 -1.864129,0.0269 -0.04603,3.16573 -3.175845,0.0303 0.05118,1.91063 3.173235,-0.0571 0.07394,3.17194 1.893364,-0.0153 z m 42.701739,0.16618 0.0257,-1.90099 -6.81673,-0.0288 0.0384,1.9176 z m -52.928487,-9.38706 c -0.35916,-0.10611 -0.535866,-0.22936 -0.890124,-0.62082 -0.243102,-0.26864 -0.588612,-0.74908 -0.7678,-1.06765 -0.276203,-0.49105 -0.210079,-0.99383 -0.200785,-1.38861 0.0174,-0.739 0.26342,-1.35619 0.708396,-1.85111 0.558553,-0.62125 1.090378,-0.84197 2.277047,-0.94503 0.628183,-0.0545 10.781985,-0.0719 28.85858,-0.0492 l 27.764473,0.0864 0.59925,0.16572 c 0.50599,0.13993 1.22835,0.89241 1.47354,1.38005 0.76958,1.53051 0.14124,3.45727 -1.35235,4.14693 l -0.53344,0.24631 -28.744334,0.0147 c -25.851848,0.0132 -28.789426,0.001 -29.192453,-0.11769 z m 4.964193,-7.703 c -0.05171,-0.0622 -0.08125,-0.9623 -0.07642,-2.32834 0.0071,-1.9943 0.209067,-2.35984 0.36225,-2.8232 0.266593,-0.80639 0.619549,-1.27015 1.370527,-1.48897 0.92753,-0.27027 4.496072,-0.23308 5.387251,0.0567 0.79659,0.25903 1.328933,0.94182 1.513743,1.94155 0.113077,0.61169 0.120931,4.44006 0.0095,4.61638 -0.06946,0.10987 -0.641732,0.12685 -4.281351,0.127 -3.157679,1.2e-4 -4.222112,-0.025 -4.285473,-0.10114 z m 40.579894,-0.0548 c -0.14651,-0.17653 -0.20588,-1.98223 -0.11179,-3.39988 0.12819,-1.93167 0.43975,-2.53764 1.57013,-3.05382 0.44747,-0.20433 0.63261,-0.23246 1.905,-0.28943 0.77515,-0.0347 1.86656,-0.0361 2.42536,-0.003 0.85447,0.0504 1.08492,0.0951 1.44947,0.28084 0.51158,0.26064 0.87075,0.5876 1.12523,1.24517 0.28472,0.73572 0.2193,1.93038 0.2193,2.87867 v 2.413 l -4.24349,0.0219 c -3.49807,0.0181 -4.2603,0.002 -4.33921,-0.0934 z"
             id="path5"
             sodipodi:nodetypes="cssssccsccscscccsscscscscccscccccsccccssscccccccccccccccscccsssssscscssscsscccsssssscssssscsscccs" />
        </g>
      </g>
    </clipPath>
    <inkscape:path-effect
       effect="fillet_chamfer"
       id="path-effect1-7"
       is_visible="true"
       lpeversion="1"
       nodesatellites_param="F,0,0,1,0,1.8675945,0,1 @ F,0,0,1,0,1.9196516,0,1 @ F,0,0,1,0,0,0,1 @ F,0,0,1,0,0,0,1"
       radius="0"
       unit="px"
       method="auto"
       mode="F"
       chamfer_steps="1"
       flexible="false"
       use_knot_distance="true"
       apply_no_radius="true"
       apply_with_radius="true"
       only_selected="false"
       hide_knots="false" />
    <inkscape:path-effect
       effect="fillet_chamfer"
       id="path-effect2-6"
       is_visible="true"
       lpeversion="1"
       nodesatellites_param="F,0,0,1,0,1.9329594,0,1 @ F,0,0,1,0,1.9103716,0,1 @ F,0,0,1,0,1.9351805,0,1 @ F,0,0,1,0,1.9456395,0,1"
       radius="0"
       unit="px"
       method="auto"
       mode="F"
       chamfer_steps="1"
       flexible="false"
       use_knot_distance="true"
       apply_no_radius="true"
       apply_with_radius="true"
       only_selected="false"
       hide_knots="false" />
  </defs>
  <g
     inkscape:label="Шар 1"
     inkscape:groupmode="layer"
     id="layer1"
     transform="translate(-18.020536,-87.121993)">
    <g
       id="g11"
       style="fill:#222222;fill-opacity:1">
      <rect
         style="fill:#222222;fill-opacity:1;stroke-width:1;-inkscape-stroke:none"
         id="rect3"
         width="55.191685"
         height="26.497444"
         x="61.68465"
         y="124.95903" />
      <path
         style="fill:#222222;fill-opacity:1;stroke-width:1;-inkscape-stroke:none"
         id="rect1"
         width="8.7104282"
         height="6.8156147"
         x="65.103905"
         y="108.5666"
         inkscape:path-effect="#path-effect1"
         sodipodi:type="rect"
         d="m 66.971499,108.5666 h 4.923182 a 1.9196516,1.9196516 45 0 1 1.919652,1.91965 v 4.89596 h -8.710428 v -4.94802 a 1.8675945,1.8675945 135 0 1 1.867594,-1.86759 z" />
      <path
         style="fill:#222222;fill-opacity:1;stroke-width:1;-inkscape-stroke:none"
         id="rect1-3"
         width="8.7104282"
         height="6.8156147"
         x="65.103905"
         y="108.5666"
         inkscape:path-effect="#path-effect1-7"
         sodipodi:type="rect"
         d="m 66.971499,108.5666 h 4.923182 a 1.9196516,1.9196516 45 0 1 1.919652,1.91965 v 4.89596 h -8.710428 v -4.94802 a 1.8675945,1.8675945 135 0 1 1.867594,-1.86759 z"
         transform="translate(40.580933,-0.04963579)" />
      <path
         style="fill:#222222;fill-opacity:1;stroke-width:1;-inkscape-stroke:none"
         id="rect2"
         width="62.208633"
         height="5.8279357"
         x="58.277817"
         y="117.14857"
         inkscape:path-effect="#path-effect2"
         sodipodi:type="rect"
         d="m 60.210776,117.14857 h 58.365304 a 1.9103716,1.9103716 45 0 1 1.91037,1.91037 v 1.98238 a 1.9351805,1.9351805 135 0 1 -1.93518,1.93518 l -58.327814,0 a 1.9456395,1.9456395 45 0 1 -1.945639,-1.94564 v -1.94933 a 1.9329594,1.9329594 135 0 1 1.932959,-1.93296 z"
         transform="matrix(0.99770673,0,0,1,0.13364695,0)" />
      <path
         style="fill:#222222;fill-opacity:1;stroke-width:1;-inkscape-stroke:none"
         id="rect2-6"
         width="62.208633"
         height="5.8279357"
         x="58.277817"
         y="117.14857"
         inkscape:path-effect="#path-effect2-6"
         sodipodi:type="rect"
         d="m 60.210776,117.14857 h 58.365304 a 1.9103716,1.9103716 45 0 1 1.91037,1.91037 v 1.98238 a 1.9351805,1.9351805 135 0 1 -1.93518,1.93518 l -58.327814,0 a 1.9456395,1.9456395 45 0 1 -1.945639,-1.94564 v -1.94933 a 1.9329594,1.9329594 135 0 1 1.932959,-1.93296 z"
         transform="matrix(0.99770673,0,0,1,0.10263072,36.362831)" />
    </g>
    <path
       d="m 87.6639,130.96102 -4.879805,7.4812 5.211568,-0.047 -2.741435,5.68699 c 0.03177,-0.0115 10.059851,-7.91424 10.059851,-7.91424 -0.0041,-4e-4 -7.137032,0.0372 -7.137032,0.0372 0.05947,-0.0164 3.611253,-5.20608 3.577043,-5.2064 z"
       style="stroke-width:0.264583"
       id="path10" />
    <path
       d="m 86.544589,129.20609 -7.573181,11.25461 5.952608,-0.0465 c 0.129749,0.21361 -4.453992,9.75651 -4.453992,9.75651 0.06265,0.0195 19.822456,-15.70356 19.823596,-15.70447 -0.0239,-0.0602 -8.577769,-0.0547 -8.509558,-0.15761 l 3.378089,-5.09478 c 0,0 -8.530756,-0.0122 -8.617562,-0.008 z m 1.119311,1.75493 4.09019,0.0377 c 0.03421,3.2e-4 -3.517568,5.19005 -3.577043,5.2064 0,0 7.132924,-0.0376 7.137032,-0.0372 0,0 -10.028077,7.90278 -10.059851,7.91424 l 2.741435,-5.68699 -5.211568,0.047 z"
       style="fill:#ffffff;fill-opacity:1;stroke-width:0.264583"
       id="path9" />
    <path
       d="m 105.48493,130.54556 0.0484,1.91771 8.45099,0.0119 0.0323,-1.90066 z"
       style="fill:#ffffff;fill-opacity:1;stroke-width:0.295993"
       id="path8" />
    <path
       d="m 70.337826,127.26719 -1.863969,0.0269 -0.04599,3.1657 -3.176033,0.03 0.05168,1.911 3.172933,-0.0574 0.0739,3.1719 1.893425,-0.015 -0.03256,-3.27215 3.379122,0.008 -0.01395,-1.89343 -3.339331,0.0594 z"
       style="fill:#ffffff;fill-opacity:1;stroke-width:0.264583"
       id="path7" />
    <path
       d="m 87.6639,130.96102 -4.879805,7.4812 5.211568,-0.047 -2.741435,5.68699 c 0.03177,-0.0115 10.059851,-7.91424 10.059851,-7.91424 -0.0041,-4e-4 -7.137032,0.0372 -7.137032,0.0372 0.05947,-0.0164 3.611253,-5.20608 3.577043,-5.2064 z"
       style="fill:#dd2a1b;fill-opacity:1;stroke-width:0.264583"
       id="path11" />
    <g
       id="g13"
       transform="matrix(1.3829897,0,0,1.3166251,-45.28175,-5.4573397)">
      <path
         d="M 144.42909,70.515108 V 82.21982 h 2.38435 V 70.515108 Z"
         style="white-space:pre;shape-inside:url(#rect1);display:inline;fill:#dd2a1b;stroke-width:3.77953"
         id="path13" />
      <path
         d="M 136.76185,70.515108 V 82.21982 h 4.08554 c 0.9663,0 1.70691,-0.284675 2.22157,-0.854211 0.51816,-0.574859 0.77722,-1.402531 0.77722,-2.483053 0,-1.320046 -0.28176,-2.29127 -0.84543,-2.914034 -0.56367,-0.628087 -1.42882,-0.942061 -2.59467,-0.942061 h -1.27073 v -4.511353 z m 2.3735,6.882267 h 1.21853 c 0.74573,0 1.11828,0.359397 1.11828,1.077971 0,0.819706 -0.37255,1.229899 -1.11828,1.229899 h -1.21853 z"
         style="white-space:pre;shape-inside:url(#rect1);display:inline;fill:#dd2a1b;stroke-width:3.77953"
         id="path12" />
      <path
         d="M 128.9737,70.515108 V 82.21982 h 2.38952 v -4.343404 h 1.30224 c 0.9593,0 1.6717,-0.332526 2.13734,-0.997872 0.46914,-0.665346 0.70383,-1.588719 0.70383,-2.770374 0,-1.149717 -0.21532,-2.035988 -0.64595,-2.658752 -0.42713,-0.622764 -1.07144,-0.93431 -1.9327,-0.93431 z m 2.38952,2.379183 h 0.67696 c 0.44464,0 0.74794,0.127946 0.90899,0.383439 0.16105,0.255493 0.24133,0.567039 0.24133,0.93431 0,0.377916 -0.093,0.688946 -0.27854,0.933793 -0.18556,0.239525 -0.50719,0.359668 -0.96583,0.359668 h -0.58291 z"
         style="white-space:pre;shape-inside:url(#rect1);display:inline;fill:#dd2a1b;stroke-width:3.77953"
         id="path11-5" />
      <path
         d="m 123.70064,70.315637 c -1.24989,0 -2.22468,0.532248 -2.92489,1.596802 -0.70022,1.064553 -1.05058,2.55242 -1.05058,4.463293 0,1.367951 0.17711,2.506653 0.53071,3.416846 0.35361,0.910193 0.81414,1.575762 1.38132,1.99626 0.57067,0.420499 1.28974,0.63097 2.158,0.63097 0.85427,0 1.56667,-0.242199 2.13734,-0.726571 0.57418,-0.489694 1.01201,-1.171386 1.3131,-2.04432 0.30459,-0.878256 0.45682,-2.001352 0.45682,-3.369303 0,-1.884259 -0.34652,-3.347684 -1.03973,-4.390946 -0.69321,-1.048585 -1.6807,-1.573031 -2.96209,-1.573031 z m -0.005,2.738334 c 0.50065,0 0.89642,0.255893 1.18701,0.766878 0.29409,0.505663 0.44131,1.30941 0.44131,2.411223 0,1.3094 -0.14004,2.216651 -0.42013,2.722314 -0.28008,0.505663 -0.67585,0.75861 -1.187,0.75861 -0.49716,0 -0.89126,-0.258321 -1.18184,-0.77463 -0.28709,-0.516308 -0.43047,-1.36496 -0.43047,-2.546614 0,-1.1923 0.14556,-2.046843 0.43615,-2.563151 0.29059,-0.516308 0.67532,-0.77463 1.15497,-0.77463 z"
         style="white-space:pre;shape-inside:url(#rect1);display:inline;fill:#dd2a1b;stroke-width:3.77953"
         id="path10-3" />
      <path
         d="m 111.71687,70.515108 v 2.890263 h 2.42621 v 8.814449 h 2.37867 v -8.814449 h 2.4262 v -2.890263 z"
         style="white-space:pre;shape-inside:url(#rect1);display:inline;fill:#dd2a1b;stroke-width:3.77953"
         id="path9-5" />
      <path
         d="m 106.71201,70.515108 c -0.73523,0 -1.29707,0.0957 -1.68569,0.287321 -0.38862,0.19162 -0.70243,0.548588 -0.94051,1.070219 -0.23807,0.516308 -0.35708,1.147204 -0.35708,1.892391 0,0.649377 0.0913,1.210925 0.27337,1.684652 0.18205,0.468403 0.43226,0.84878 0.75085,1.141532 0.20307,0.186297 0.48149,0.340597 0.8351,0.463021 -0.28359,0.143714 -0.49006,0.287267 -0.6196,0.430981 -0.0875,0.09581 -0.21539,0.300907 -0.38344,0.61495 -0.16455,0.314043 -0.27472,0.556242 -0.33073,0.72657 l -1.15032,3.393075 h 2.68872 l 1.27125,-3.576526 c 0.16104,-0.463081 0.30442,-0.763879 0.43046,-0.90227 0.17155,-0.180975 0.36584,-0.271818 0.58291,-0.271818 h 0.20981 v 4.750614 h 2.38951 V 70.515108 Z m 0.5302,2.36368 h 1.0449 v 2.379183 h -1.00304 c -0.10854,0 -0.31834,-0.05322 -0.62994,-0.15968 -0.15755,-0.04791 -0.28707,-0.170477 -0.38861,-0.36742 -0.098,-0.196942 -0.14727,-0.423018 -0.14727,-0.678511 0,-0.377917 0.0791,-0.667966 0.23667,-0.870231 0.15755,-0.202265 0.45316,-0.303341 0.88729,-0.303341 z"
         style="white-space:pre;shape-inside:url(#rect1);display:inline;fill:#dd2a1b;stroke-width:3.77953"
         id="path8-6" />
      <path
         d="m 95.683224,70.515108 v 7.744747 c 0,0.574859 -0.06643,0.971358 -0.199471,1.189591 -0.133041,0.212911 -0.360546,0.319361 -0.682645,0.319361 h -0.357084 v 2.371431 c 0.336103,0.08517 0.633889,0.127641 0.892968,0.127641 0.847261,0 1.460015,-0.162103 1.838131,-0.486792 0.381617,-0.324689 0.622972,-0.833012 0.724504,-1.524971 0.105032,-0.697283 0.157613,-1.786222 0.157613,-3.265951 v -3.600814 h 1.858801 v 8.830469 h 2.379179 V 70.515108 Z"
         style="white-space:pre;shape-inside:url(#rect1);display:inline;fill:#dd2a1b;stroke-width:3.77953"
         id="path7-2" />
      <path
         d="m 87.270301,70.515108 2.562634,8.463566 c -0.119036,0.622764 -0.45337,0.933793 -1.003039,0.933793 -0.185557,0 -0.479493,-0.03173 -0.882117,-0.0956 v 2.418974 c 0.68271,0.122423 1.16427,0.183968 1.444356,0.183968 0.528663,0 0.943276,-0.11477 1.244369,-0.343649 0.304594,-0.234201 0.534283,-0.529625 0.68833,-0.88625 0.154047,-0.361948 0.333972,-0.907374 0.540536,-1.636593 l 2.525944,-9.038208 h -2.420525 l -1.050581,4.822445 -1.066085,-4.822445 z"
         style="white-space:pre;shape-inside:url(#rect1);display:inline;fill:#dd2a1b;stroke-width:3.77953"
         id="path6" />
      <path
         d="M 77.817648,70.515108 V 82.21982 h 1.948202 v -8.92607 l 1.501717,8.92607 h 1.759582 l 1.506885,-8.92607 v 8.92607 h 1.943551 V 70.515108 h -3.119707 l -1.20251,7.122046 -1.208195,-7.122046 z"
         style="white-space:pre;shape-inside:url(#rect1);display:inline;fill:#dd2a1b;stroke-width:3.77953"
         id="path5-9" />
      <path
         d="m 69.892551,70.515108 2.563151,8.463566 c -0.119037,0.622764 -0.453371,0.933793 -1.00304,0.933793 -0.185557,0 -0.48001,-0.03173 -0.882633,-0.0956 v 2.418974 c 0.68271,0.122423 1.16427,0.183968 1.444356,0.183968 0.528662,0 0.943793,-0.11477 1.244885,-0.343649 0.304594,-0.234201 0.533766,-0.529625 0.687813,-0.88625 0.154048,-0.361948 0.334489,-0.907374 0.541053,-1.636593 l 2.525944,-9.038208 h -2.421041 l -1.050582,4.822445 -1.066085,-4.822445 z"
         style="white-space:pre;shape-inside:url(#rect1);display:inline;fill:#dd2a1b;stroke-width:3.77953"
         id="path4" />
      <path
         d="m 69.519963,70.427258 c -0.875269,0 -1.517904,0.06935 -1.92753,0.207739 -0.409626,0.138392 -0.705229,0.367414 -0.887285,0.68678 -0.182056,0.314043 -0.362497,0.835543 -0.541052,1.564763 -0.245075,0.984711 -0.425517,1.580933 -0.541052,1.788521 -0.115536,0.207588 -0.276611,0.319412 -0.483175,0.33538 V 70.515108 H 62.766371 V 82.21982 h 2.373498 v -4.630725 c 0.217067,0 0.386992,0.09084 0.50953,0.271818 0.122537,0.175651 0.294129,0.620001 0.514697,1.333252 l 0.924491,3.025655 h 2.677873 l -1.044897,-3.201355 c -0.287089,-0.883579 -0.558326,-1.533026 -0.813904,-1.948202 -0.255579,-0.420498 -0.555031,-0.715922 -0.898137,-0.88625 0.252078,-0.154361 0.450218,-0.359457 0.593763,-0.61495 0.147045,-0.260815 0.283238,-0.651941 0.409277,-1.173572 0.126039,-0.526954 0.287114,-0.90733 0.483175,-1.141532 0.19606,-0.234202 0.497179,-0.3514 0.903304,-0.3514 h 0.120922 z"
         style="white-space:pre;shape-inside:url(#rect1);display:inline;fill:#dd2a1b;stroke-width:3.77953"
         id="path3" />
      <path
         d="m 61.668763,70.427258 c -0.875269,0 -1.517905,0.06935 -1.927531,0.207739 -0.409626,0.138392 -0.705228,0.367414 -0.887284,0.68678 -0.182056,0.314043 -0.362498,0.835543 -0.541052,1.564763 -0.245076,0.984711 -0.425517,1.580933 -0.541053,1.788521 -0.115535,0.207588 -0.276611,0.319412 -0.483174,0.33538 V 70.515108 H 54.91517 V 82.21982 h 2.373499 v -4.630725 c 0.217066,0 0.386992,0.09084 0.509529,0.271818 0.122538,0.175651 0.29413,0.620001 0.514698,1.333252 l 0.924491,3.025655 h 2.678389 l -1.045414,-3.201355 c -0.287088,-0.883579 -0.558325,-1.533026 -0.813904,-1.948202 -0.255578,-0.420498 -0.55503,-0.715922 -0.898136,-0.88625 0.252078,-0.154361 0.450218,-0.359457 0.593762,-0.61495 0.147045,-0.260815 0.283239,-0.651941 0.409278,-1.173572 0.126038,-0.526954 0.287114,-0.90733 0.483174,-1.141532 0.196061,-0.234202 0.497179,-0.3514 0.903304,-0.3514 h 0.120923 z"
         style="white-space:pre;shape-inside:url(#rect1);display:inline;fill:#dd2a1b;stroke-width:3.77953"
         id="path2" />
      <path
         d="m 48.665939,70.515108 -2.89388,11.704712 h 2.431376 l 0.373104,-1.932182 h 2.709912 l 0.377755,1.932182 H 54.15346 L 51.260096,70.515108 Z m 1.270724,3.033923 0.850594,4.208012 h -1.696021 z"
         style="white-space:pre;shape-inside:url(#rect1);display:inline;fill:#dd2a1b;stroke-width:3.77953"
         id="path1" />
    </g>
    <g
       id="g19"
       transform="matrix(1.6207038,0,0,1.4846906,-58.494434,40.117963)">
      <path
         d="m 78.032622,85.365881 c -0.568915,0 -1.195597,0.0228 -1.879988,0.06821 l -1.968356,6.068363 h 1.937866 c 0.604473,0 1.110965,-0.162871 1.518771,-0.488342 0.409033,-0.329255 0.694242,-0.743259 0.856278,-1.242818 0.25042,-0.772046 0.112489,-1.282943 -0.413928,-1.532723 0.254868,-0.109752 0.48229,-0.276423 0.682129,-0.499711 0.199839,-0.223288 0.343309,-0.469237 0.430465,-0.73794 0.173084,-0.53362 0.156056,-0.938641 -0.05064,-1.214912 -0.205472,-0.280056 -0.576273,-0.42013 -1.112594,-0.42013 z m -0.204639,0.823206 c 0.254827,0 0.427957,0.07358 0.519349,0.221175 0.09558,0.143812 0.10156,0.344682 0.01809,0.60203 -0.193953,0.597958 -0.591699,0.896586 -1.193208,0.896586 -0.634104,0 -0.973588,-0.0038 -1.018543,-0.01137 l 0.539502,-1.662948 c 0.26761,-0.03028 0.645903,-0.04547 1.134814,-0.04547 z m -0.911572,2.50889 c 0.352609,0 0.592608,0.08739 0.719853,0.261483 0.128472,0.170305 0.140838,0.414354 0.03772,0.732255 -0.213594,0.65851 -0.674164,0.987537 -1.382345,0.987537 -0.358535,0 -0.70109,-0.0133 -1.027327,-0.03979 L 75.88495,88.7264 c 0.234296,-0.01892 0.578107,-0.02842 1.031461,-0.02842 z"
         style="font-size:10.2873px;font-family:'Arial Black';-inkscape-font-specification:'Arial Black, ';fill:#222222;stroke-width:3.24013"
         id="path14" />
      <path
         d="m 86.157191,83.022355 -5.374866,8.429976 h 0.991154 l 1.053683,-1.753898 h 2.422074 l -0.12454,1.753898 h 0.991154 l 0.276469,-8.429976 z m -0.621151,2.174544 -0.271818,3.661275 h -1.929081 z"
         style="font-size:10.2873px;font-family:'Arial Black';-inkscape-font-specification:'Arial Black, ';fill:#222222;stroke-width:3.24013"
         id="path15" />
      <path
         d="m 88.807675,85.365364 -1.971973,6.079733 h 0.849044 l 0.889352,-2.741952 h 2.19108 l -0.889351,2.741952 h 0.849044 l 1.971972,-6.079733 H 91.8478 l -0.791683,2.440678 h -2.191081 l 0.791683,-2.440678 z"
         style="font-size:10.2873px;font-family:'Arial Black';-inkscape-font-specification:'Arial Black, ';fill:#222222;stroke-width:3.24013"
         id="path16" />
      <path
         d="m 95.451714,85.099748 c -0.269642,0 -0.570667,0.06459 -0.902787,0.193269 -0.329158,0.128675 -0.589823,0.270648 -0.782382,0.425814 l 0.0646,0.896586 c 0.412419,-0.3671 0.877755,-0.550354 1.396297,-0.550354 0.693366,0 0.880886,0.491899 0.561723,1.475879 -0.198698,-0.09083 -0.388725,-0.136426 -0.569474,-0.136426 -0.657809,0 -1.265932,0.212269 -1.824178,0.636137 -0.555283,0.423869 -0.932657,0.944265 -1.132748,1.561145 -0.165719,0.510913 -0.168972,0.940116 -0.0093,1.288294 0.15967,0.348177 0.427771,0.522448 0.804085,0.522448 0.687439,0 1.290966,-0.270647 1.810225,-0.811836 -0.02002,0.253564 0.02869,0.450633 0.146245,0.590661 0.120514,0.140028 0.364313,0.209807 0.731738,0.209807 l 0.173116,-0.533818 c -0.191206,-0.177873 -0.200473,-0.533498 -0.02739,-1.067118 l 0.705384,-2.174028 c 0.293384,-0.904505 0.343439,-1.551676 0.149861,-1.941483 -0.193577,-0.389808 -0.62535,-0.584977 -1.295011,-0.584977 z m -0.438733,3.093868 c 0.07408,0 0.249092,0.0399 0.525549,0.119372 l -0.478523,1.475879 c -0.508931,0.518482 -0.972299,0.77773 -1.390096,0.77773 -0.583731,0 -0.772603,-0.317627 -0.566374,-0.95343 0.122755,-0.378454 0.364862,-0.709897 0.726571,-0.993738 0.361708,-0.28384 0.756187,-0.425813 1.182873,-0.425813 z"
         style="font-size:10.2873px;font-family:'Arial Black';-inkscape-font-specification:'Arial Black, ';fill:#222222;stroke-width:3.24013"
         id="path17" />
      <path
         d="m 98.627747,85.247025 -1.971972,6.079733 h 0.849044 l 1.677417,-5.171261 h 2.075324 l -1.677416,5.171261 h 0.844906 l 1.97198,-6.079733 z"
         style="font-size:10.2873px;font-family:'Arial Black';-inkscape-font-specification:'Arial Black, ';fill:#222222;stroke-width:3.24013"
         id="path18" />
      <path
         d="m 105.47591,85.091479 c -0.6104,0 -1.23148,0.299146 -1.86397,0.897103 -0.6283,0.594173 -1.09929,1.373818 -1.41232,2.338875 -0.29829,0.919644 -0.33198,1.663191 -0.10128,2.230872 0.23489,0.563896 0.67541,0.845943 1.32136,0.845943 0.39113,0 0.73281,-0.0399 1.02526,-0.119372 0.29369,-0.08326 0.58798,-0.236116 0.88264,-0.459404 l -0.0631,-0.874365 c -0.44797,0.3671 -0.91045,0.550354 -1.38751,0.550354 -0.31705,0 -0.55959,-0.08878 -0.72709,-0.26665 -0.16331,-0.181658 -0.25395,-0.427608 -0.27182,-0.73794 -0.0179,-0.310332 0.0458,-0.688755 0.19069,-1.135331 h 3.43132 c 0.14243,-0.283841 0.23938,-0.505092 0.29093,-0.664042 0.25779,-0.794754 0.26734,-1.426726 0.0284,-1.896009 -0.23769,-0.473067 -0.68578,-0.710034 -1.34359,-0.710034 z m -0.2589,0.908472 c 0.38817,0 0.65011,0.147673 0.78548,0.442867 0.1366,0.29141 0.13013,0.667933 -0.0196,1.129647 h -2.63136 c 0.16661,-0.431438 0.4254,-0.800362 0.7767,-1.106909 0.35548,-0.310333 0.71843,-0.465605 1.08882,-0.465605 z"
         style="font-size:10.2873px;font-family:'Arial Black';-inkscape-font-specification:'Arial Black, ';fill:#222222;stroke-width:3.24013"
         id="path19" />
    </g>
  </g>
</svg>
